{
  "asset": {
    "version": "2.0",
    "generator": "THREE.GLTFExporter r164"
  },
  "scenes": [
    {
      "name": "Scene",
      "nodes": [
        2
      ]
    }
  ],
  "scene": 0,
  "nodes": [
    {
      "name": "Suzanne",
      "extras": {
        "name": "Suzanne"
      },
      "mesh": 0
    },
    {
      "matrix": [
        0.9615241971716546,
        0.2364665003560182,
        -0.13983853113425002,
        0,
        -0.2083082425468258,
        0.29569928940391965,
        -0.932292684154992,
        0,
        -0.17910583344923223,
        0.9255514912303751,
        0.33357994215858844,
        0,
        -0.6494017839431763,
        1.9720816612243652,
        4.31780481338501,
        1
      ],
      "name": "Spot",
      "extras": {
        "name": "Spot"
      },
      "extensions": {
        "KHR_lights_punctual": {
          "light": 0
        }
      }
    },
    {
      "name": "20240515Suzanne.glb",
      "children": [
        0,
        1
      ]
    }
  ],
  "bufferViews": [
    {
      "buffer": 0,
      "byteOffset": 0,
      "byteLength": 23592,
      "target": 34962,
      "byteStride": 12
    },
    {
      "buffer": 0,
      "byteOffset": 23592,
      "byteLength": 23592,
      "target": 34962,
      "byteStride": 12
    },
    {
      "buffer": 0,
      "byteOffset": 47184,
      "byteLength": 15728,
      "target": 34962,
      "byteStride": 8
    },
    {
      "buffer": 0,
      "byteOffset": 62912,
      "byteLength": 11616,
      "target": 34963
    }
  ],
  "buffers": [
    {
      "byteLength": 74528,
      "uri": "data:application/octet-stream;base64,"
    }
  ],
  "accessors": [
    {
      "bufferView": 0,
      "componentType": 5126,
      "count": 1966,
      "max": [
        1.3671875,
        0.9844150543212891,
        0.8515176773071289
      ],
      "min": [
        -1.3671875,
        -0.984375,
        -0.8515625
      ],
      "type": "VEC3"
    },
    {
      "bufferView": 1,
      "componentType": 5126,
      "count": 1966,
      "max": [
        1,
        0.9970560669898987,
        1
      ],
      "min": [
        -1,
        -0.9924085736274719,
        -0.9864921569824219
      ],
      "type": "VEC3"
    },
    {
      "bufferView": 2,
      "componentType": 5126,
      "count": 1966,
      "max": [
        0.9998599886894226,
        0.9906981587409973
      ],
      "min": [
        0.00014000000373926014,
        0.014658987522125244
      ],
      "type": "VEC2"
    },
    {
      "bufferView": 3,
      "componentType": 5125,
      "count": 2904,
      "max": [
        1965
      ],
      "min": [
        0
      ],
      "type": "SCALAR"
    }
  ],
  "materials": [
    {
      "pbrMetallicRoughness": {
        "baseColorFactor": [
          0.7991027380100881,
          0.2746773120495699,
          0.3613067797729723,
          1
        ],
        "metallicFactor": 0,
        "roughnessFactor": 0.5
      },
      "doubleSided": true,
      "name": "Material"
    }
  ],
  "meshes": [
    {
      "primitives": [
        {
          "mode": 4,
          "attributes": {
            "POSITION": 0,
            "NORMAL": 1,
            "TEXCOORD_0": 2
          },
          "indices": 3,
          "material": 0
        }
      ]
    }
  ],
  "extensions": {
    "KHR_lights_punctual": {
      "lights": [
        {
          "name": "Spot",
          "color": [
            1,
            1,
            1
          ],
          "intensity": 100,
          "type": "point"
        }
      ]
    }
  },
  "extensionsUsed": [
    "KHR_lights_punctual"
  ]
}